<svg aria-hidden="true" style="position: absolute; width: 0; height: 0; overflow: hidden;" version="1.1" xmlns="http://www.w3.org/2000/svg" xmlns:xlink="http://www.w3.org/1999/xlink">
<defs>
<symbol id="icon-office" viewBox="0 0 90 32">
<title>office</title>
<path d="M48.352 15.808c0 1.728-0.288 3.264-0.928 4.576s-1.536 2.304-2.752 3.008c-1.184 0.704-2.528 1.056-4.096 1.056-1.472 0-2.816-0.352-3.968-1.024-1.184-0.672-2.080-1.664-2.72-2.912-0.608-1.28-0.928-2.72-0.928-4.288 0-1.728 0.32-3.264 0.96-4.576s1.568-2.304 2.752-3.008c1.216-0.704 2.624-1.056 4.192-1.056 1.44 0 2.752 0.352 3.904 1.024 1.152 0.704 2.048 1.664 2.656 2.912 0.64 1.28 0.928 2.688 0.928 4.288zM46.368 16.064c0-2.112-0.512-3.776-1.504-4.96-0.992-1.216-2.368-1.792-4.128-1.792-1.12 0-2.112 0.288-3.008 0.832-0.896 0.576-1.568 1.376-2.048 2.4s-0.736 2.208-0.736 3.488c0 1.312 0.224 2.464 0.704 3.488s1.12 1.824 1.984 2.368c0.864 0.544 1.856 0.832 2.944 0.832 1.824 0 3.232-0.576 4.256-1.76s1.536-2.816 1.536-4.896zM61.792 8.256c0.448 0 0.864 0.096 1.216 0.32v-1.696c-0.32-0.128-0.768-0.192-1.344-0.192-1.088 0-1.952 0.352-2.656 1.088s-1.056 1.696-1.056 2.848v1.888h-4.544v-1.792c0-1.632 0.672-2.464 1.952-2.464 0.48 0 0.896 0.096 1.248 0.32v-1.696c-0.32-0.128-0.768-0.192-1.344-0.192-1.088 0-1.984 0.352-2.656 1.088-0.704 0.736-1.056 1.696-1.056 2.848v1.888h-1.984v1.6h1.984v10.048h1.856v-10.048h4.544v10.048h1.856v-10.048h2.752v-1.6h-2.752v-1.792c0-1.632 0.672-2.464 1.984-2.464zM66.464 8.352c0 0.352-0.128 0.64-0.352 0.864-0.256 0.224-0.544 0.352-0.864 0.352-0.352 0-0.64-0.128-0.864-0.352-0.256-0.192-0.384-0.512-0.384-0.864 0-0.32 0.128-0.608 0.352-0.864 0.256-0.224 0.544-0.352 0.896-0.352 0.32 0 0.64 0.128 0.864 0.352 0.224 0.256 0.352 0.544 0.352 0.864zM66.144 24.16h-1.856v-11.648h1.856v11.648zM76.8 23.648c-0.928 0.544-1.984 0.8-3.2 0.8-1.056 0-2.016-0.256-2.88-0.736-0.832-0.48-1.504-1.184-1.952-2.080-0.48-0.896-0.704-1.888-0.704-3.008 0-1.92 0.544-3.456 1.632-4.64 1.12-1.152 2.592-1.76 4.416-1.76 1.024 0 1.92 0.224 2.688 0.608v1.92c-0.864-0.608-1.792-0.928-2.752-0.928-1.216 0-2.208 0.448-2.944 1.312-0.768 0.832-1.152 1.952-1.152 3.328 0 1.344 0.384 2.432 1.088 3.2 0.704 0.8 1.664 1.184 2.88 1.184 1.024 0 1.984-0.32 2.88-0.992v1.792zM88.288 18.816h-8.224c0.032 1.312 0.352 2.304 1.024 3.008s1.6 1.024 2.752 1.024c1.344 0 2.528-0.416 3.616-1.248v1.728c-1.024 0.736-2.368 1.12-4.064 1.12-1.632 0-2.944-0.544-3.872-1.6-0.928-1.088-1.408-2.56-1.408-4.448 0-1.152 0.224-2.208 0.704-3.168s1.12-1.696 1.92-2.208c0.832-0.512 1.728-0.8 2.752-0.8 1.504 0 2.656 0.512 3.52 1.504 0.832 0.96 1.28 2.336 1.28 4.096v0.992zM86.368 17.216c-0.032-1.056-0.288-1.888-0.8-2.496-0.48-0.576-1.184-0.896-2.112-0.896-0.864 0-1.6 0.32-2.208 0.928-0.64 0.64-1.024 1.472-1.184 2.464h6.304zM24.768 27.328v0-22.592l-8.096-2.336-14.592 5.472v16.32l4.96-1.92v-13.312l9.632-2.304v19.552l-14.592-2.016 14.592 5.408 8.096-2.24v-0.032z"></path>
</symbol>
<symbol id="icon-office365" viewBox="0 0 128 32">
<title>office365</title>
<path d="M48.352 15.808c0 1.728-0.288 3.264-0.928 4.576s-1.536 2.304-2.752 3.008c-1.184 0.704-2.528 1.056-4.096 1.056-1.472 0-2.816-0.352-3.968-1.024-1.184-0.672-2.080-1.664-2.72-2.912-0.608-1.28-0.928-2.72-0.928-4.288 0-1.728 0.32-3.264 0.96-4.576s1.568-2.304 2.752-3.008c1.216-0.704 2.624-1.056 4.192-1.056 1.44 0 2.752 0.352 3.904 1.024 1.152 0.704 2.048 1.664 2.656 2.912 0.64 1.28 0.928 2.688 0.928 4.288zM46.368 16.064c0-2.112-0.512-3.776-1.504-4.96-0.992-1.216-2.368-1.792-4.128-1.792-1.12 0-2.112 0.288-3.008 0.832-0.896 0.576-1.568 1.376-2.048 2.4s-0.736 2.208-0.736 3.488c0 1.312 0.224 2.464 0.704 3.488s1.12 1.824 1.984 2.368c0.864 0.544 1.856 0.832 2.944 0.832 1.824 0 3.232-0.576 4.256-1.76s1.536-2.816 1.536-4.896zM61.792 8.256c0.448 0 0.864 0.096 1.216 0.32v-1.696c-0.32-0.128-0.768-0.192-1.344-0.192-1.088 0-1.952 0.352-2.656 1.088s-1.056 1.696-1.056 2.848v1.888h-4.544v-1.792c0-1.632 0.672-2.464 1.952-2.464 0.48 0 0.896 0.096 1.248 0.32v-1.696c-0.32-0.128-0.768-0.192-1.344-0.192-1.088 0-1.984 0.352-2.656 1.088-0.704 0.736-1.056 1.696-1.056 2.848v1.888h-1.984v1.6h1.984v10.048h1.856v-10.048h4.544v10.048h1.856v-10.048h2.752v-1.6h-2.752v-1.792c0-1.632 0.672-2.464 1.984-2.464zM66.464 8.352c0 0.352-0.128 0.64-0.352 0.864-0.256 0.224-0.544 0.352-0.864 0.352-0.352 0-0.64-0.128-0.864-0.352-0.256-0.192-0.384-0.512-0.384-0.864 0-0.32 0.128-0.608 0.352-0.864 0.256-0.224 0.544-0.352 0.896-0.352 0.32 0 0.64 0.128 0.864 0.352 0.224 0.256 0.352 0.544 0.352 0.864zM66.144 24.16h-1.856v-11.648h1.856v11.648zM76.8 23.648c-0.928 0.544-1.984 0.8-3.2 0.8-1.056 0-2.016-0.256-2.88-0.736-0.832-0.48-1.504-1.184-1.952-2.080-0.48-0.896-0.704-1.888-0.704-3.008 0-1.92 0.544-3.456 1.632-4.64 1.12-1.152 2.592-1.76 4.416-1.76 1.024 0 1.92 0.224 2.688 0.608v1.92c-0.864-0.608-1.792-0.928-2.752-0.928-1.216 0-2.208 0.448-2.944 1.312-0.768 0.832-1.152 1.952-1.152 3.328 0 1.344 0.384 2.432 1.088 3.2 0.704 0.8 1.664 1.184 2.88 1.184 1.024 0 1.984-0.32 2.88-0.992v1.792zM88.288 18.816h-8.224c0.032 1.312 0.352 2.304 1.024 3.008s1.6 1.024 2.752 1.024c1.344 0 2.528-0.416 3.616-1.248v1.728c-1.024 0.736-2.368 1.12-4.064 1.12-1.632 0-2.944-0.544-3.872-1.6-0.928-1.088-1.408-2.56-1.408-4.448 0-1.152 0.224-2.208 0.704-3.168s1.12-1.696 1.92-2.208c0.832-0.512 1.728-0.8 2.752-0.8 1.504 0 2.656 0.512 3.52 1.504 0.832 0.96 1.28 2.336 1.28 4.096v0.992zM86.368 17.216c-0.032-1.056-0.288-1.888-0.8-2.496-0.48-0.576-1.184-0.896-2.112-0.896-0.864 0-1.6 0.32-2.208 0.928-0.64 0.64-1.024 1.472-1.184 2.464h6.304zM102.464 19.552c0 1.472-0.544 2.656-1.6 3.552s-2.432 1.344-4.128 1.344c-1.568 0-2.816-0.288-3.712-0.896v-1.984c1.088 0.864 2.336 1.28 3.776 1.28 1.152 0 2.048-0.256 2.72-0.832s1.024-1.344 1.024-2.304c0-2.112-1.504-3.2-4.544-3.2h-1.344v-1.568h1.28c2.688 0 4.032-0.992 4.032-3.008 0-1.856-1.024-2.752-3.072-2.752-1.152 0-2.24 0.384-3.264 1.152v-1.824c1.056-0.608 2.272-0.928 3.712-0.928 1.344 0 2.432 0.352 3.264 1.088 0.832 0.704 1.248 1.632 1.248 2.816 0 2.144-1.088 3.52-3.232 4.128v0.032c1.152 0.128 2.080 0.576 2.784 1.28s1.056 1.568 1.056 2.624zM114.752 19.008c0 1.024-0.224 1.952-0.672 2.784-0.448 0.864-1.056 1.504-1.824 1.952-0.8 0.48-1.664 0.704-2.624 0.704-1.632 0-2.912-0.64-3.84-1.952s-1.408-3.168-1.408-5.504c0-1.856 0.288-3.52 0.832-4.928 0.544-1.44 1.344-2.528 2.336-3.328 1.024-0.768 2.176-1.152 3.488-1.152 1.12 0 2.016 0.16 2.72 0.48v1.76c-0.864-0.448-1.728-0.64-2.656-0.64-1.44 0-2.624 0.64-3.488 1.92-0.864 1.312-1.28 3.008-1.28 5.184h0.032c0.768-1.536 1.984-2.304 3.712-2.304 1.408 0 2.56 0.448 3.392 1.376 0.864 0.928 1.28 2.144 1.28 3.648zM112.832 19.232c0-1.152-0.256-2.048-0.832-2.688-0.544-0.672-1.344-0.992-2.336-0.992-0.896 0-1.664 0.32-2.304 0.96-0.608 0.64-0.928 1.408-0.928 2.336 0 1.12 0.32 2.080 0.928 2.848s1.408 1.152 2.336 1.152c0.928 0 1.696-0.32 2.272-0.992s0.864-1.536 0.864-2.624zM125.728 19.2c0 1.568-0.512 2.848-1.568 3.808s-2.464 1.44-4.224 1.44c-1.504 0-2.624-0.224-3.36-0.672v-1.984c1.088 0.704 2.24 1.056 3.392 1.056s2.080-0.32 2.784-0.96c0.704-0.64 1.056-1.504 1.056-2.592 0-1.056-0.352-1.888-1.056-2.496s-1.76-0.896-3.104-0.896c-1.088 0-2.016 0.032-2.784 0.128l0.576-8.16h7.52v1.664h-5.92l-0.32 4.8 1.504-0.064c1.696 0 3.040 0.448 4.032 1.28 0.992 0.864 1.472 2.080 1.472 3.648zM24.768 27.328v0-22.592l-8.096-2.336-14.592 5.472v16.32l4.96-1.92v-13.312l9.632-2.304v19.552l-14.592-2.016 14.592 5.408 8.096-2.24v-0.032z"></path>
</symbol>
<symbol id="icon-microsoft" viewBox="0 0 96 32">
<title>microsoft</title>
<path d="M15.904 7.872h3.84v16.288h-2.816v-10.368c0-0.64 0.064-1.728 0.128-2.912h-0.064c-0.128 0.48-0.224 1.024-0.352 1.28l-4.864 12h-1.824l-4.928-11.872c-0.096-0.32-0.224-0.8-0.352-1.408h-0.064c0 0.256 0.064 0.608 0.064 1.056 0.032 0.832 0.064 1.6 0.064 2.208v10.016h-2.656v-16.288h4l4.096 10.24c0.352 0.896 0.576 1.632 0.704 2.112h0.064l0.768-2.144 4.192-10.208zM22.368 24.16h2.752v-11.68h-2.752v11.68zM23.776 7.52c-0.448 0-0.832 0.16-1.152 0.448-0.352 0.32-0.512 0.704-0.512 1.152s0.16 0.832 0.48 1.12c0.32 0.288 0.736 0.448 1.184 0.448 0.48 0 0.864-0.16 1.184-0.448s0.48-0.672 0.48-1.12c0-0.448-0.16-0.832-0.448-1.12-0.32-0.32-0.736-0.48-1.216-0.48zM34.848 12.352c-0.512-0.096-1.024-0.16-1.536-0.16-1.248 0-2.368 0.288-3.328 0.8-0.96 0.544-1.696 1.312-2.208 2.272s-0.768 2.112-0.768 3.36c0 1.12 0.256 2.112 0.736 3.008 0.512 0.896 1.184 1.6 2.080 2.080 0.864 0.48 1.856 0.736 2.976 0.736 1.312 0 2.432-0.256 3.328-0.768l0.032-0.032v-2.528l-0.096 0.096c-0.416 0.288-0.864 0.544-1.344 0.704-0.512 0.16-0.928 0.256-1.344 0.256-1.056 0-1.92-0.352-2.56-0.992-0.64-0.672-0.96-1.6-0.96-2.784s0.352-2.144 0.992-2.848c0.672-0.704 1.536-1.088 2.592-1.088 0.896 0 1.792 0.32 2.624 0.928l0.096 0.064v-2.624l-0.032-0.032c-0.32-0.192-0.736-0.32-1.28-0.448zM43.904 12.288c-0.672 0-1.312 0.224-1.824 0.64-0.48 0.384-0.8 0.928-1.056 1.568h-0.032v-2.016h-2.752v11.68h2.752v-5.984c0-0.992 0.224-1.824 0.672-2.464s1.056-0.928 1.792-0.928c0.256 0 0.512 0.032 0.832 0.096 0.288 0.096 0.512 0.192 0.64 0.256l0.096 0.096v-2.784h-0.032c-0.256-0.128-0.608-0.16-1.088-0.16zM55.648 13.792c1.024 1.088 1.536 2.56 1.536 4.416 0 1.888-0.544 3.424-1.632 4.544s-2.592 1.696-4.448 1.696c-1.792 0-3.232-0.544-4.32-1.6-1.056-1.088-1.6-2.56-1.6-4.384 0-1.92 0.544-3.456 1.632-4.576 1.12-1.12 2.624-1.696 4.576-1.696 1.792 0 3.232 0.544 4.256 1.6zM54.336 18.304c0-1.248-0.256-2.208-0.832-2.848-0.544-0.64-1.312-0.992-2.272-0.992-0.992 0-1.792 0.352-2.336 1.024-0.576 0.672-0.864 1.632-0.864 2.88 0 1.216 0.288 2.144 0.864 2.816 0.544 0.64 1.344 0.992 2.368 0.992 0.992 0 1.792-0.32 2.304-0.992 0.512-0.64 0.768-1.6 0.768-2.88zM63.296 17.312c-0.864-0.352-1.408-0.64-1.664-0.864-0.224-0.224-0.32-0.512-0.32-0.896 0-0.352 0.128-0.608 0.416-0.832s0.704-0.32 1.184-0.32c0.48 0 0.96 0.064 1.408 0.192 0.48 0.16 0.896 0.352 1.248 0.576l0.096 0.096v-2.56h-0.032c-0.32-0.16-0.736-0.256-1.248-0.352s-0.96-0.16-1.376-0.16c-1.312 0-2.4 0.352-3.232 0.992-0.832 0.672-1.248 1.536-1.248 2.592 0 0.576 0.096 1.056 0.288 1.472 0.16 0.416 0.448 0.768 0.8 1.088 0.384 0.288 0.96 0.608 1.696 0.928 0.64 0.256 1.12 0.48 1.408 0.672 0.288 0.16 0.512 0.32 0.64 0.512 0.096 0.16 0.16 0.384 0.16 0.64 0 0.8-0.576 1.184-1.792 1.184-0.448 0-0.96-0.096-1.536-0.288-0.544-0.192-1.088-0.448-1.536-0.8l-0.128-0.064v2.688h0.032c0.416 0.192 0.896 0.352 1.472 0.448 0.608 0.128 1.12 0.192 1.6 0.192 1.408 0 2.56-0.32 3.392-0.992s1.28-1.568 1.28-2.656c0-0.8-0.256-1.472-0.704-2.016s-1.216-1.024-2.304-1.472zM77.952 13.792c1.024 1.088 1.536 2.56 1.536 4.416 0 1.888-0.544 3.424-1.632 4.544s-2.592 1.696-4.448 1.696c-1.792 0-3.232-0.544-4.32-1.6-1.056-1.088-1.6-2.56-1.6-4.384 0-1.92 0.544-3.456 1.632-4.576 1.12-1.12 2.624-1.696 4.576-1.696 1.792 0 3.232 0.544 4.256 1.6zM76.64 18.304c0-1.248-0.256-2.208-0.832-2.848-0.544-0.64-1.312-0.992-2.272-0.992-0.992 0-1.792 0.352-2.336 1.024-0.576 0.672-0.864 1.632-0.864 2.88 0 1.216 0.288 2.144 0.864 2.816 0.544 0.64 1.344 0.992 2.368 0.992 0.992 0 1.792-0.32 2.304-0.992 0.512-0.64 0.768-1.6 0.768-2.88zM94.144 14.72v-2.24h-2.784v-3.488l-0.064 0.032-2.624 0.8-0.064 0.032v2.624h-4.128v-1.472c0-0.672 0.16-1.216 0.48-1.536 0.288-0.352 0.704-0.544 1.248-0.544 0.416 0 0.8 0.096 1.216 0.288l0.096 0.032v-2.368h-0.032c-0.384-0.128-0.896-0.224-1.536-0.224-0.832 0-1.568 0.192-2.208 0.544s-1.152 0.832-1.504 1.472c-0.352 0.64-0.544 1.376-0.544 2.208v1.6h-1.92v2.24h1.92v9.44h2.784v-9.44h4.128v6.016c0 2.464 1.184 3.712 3.456 3.712 0.384 0 0.8-0.032 1.184-0.128 0.416-0.096 0.704-0.192 0.864-0.288h0.032v-2.272l-0.096 0.064c-0.16 0.128-0.352 0.192-0.576 0.256s-0.384 0.096-0.544 0.096c-0.544 0-0.928-0.16-1.184-0.448s-0.384-0.768-0.384-1.472v-5.536h2.784z"></path>
</symbol>
</defs>
</svg>
