<?xml version="1.0" encoding="utf-8"?>
<!-- Generator: Adobe Illustrator 23.0.6, SVG Export Plug-In . SVG Version: 6.00 Build 0)  -->
<svg version="1.1" id="Layer_1" xmlns:sketch="http://www.bohemiancoding.com/sketch/ns"
	 xmlns="http://www.w3.org/2000/svg" xmlns:xlink="http://www.w3.org/1999/xlink" x="0px" y="0px" viewBox="0 0 48 40"
	 style="enable-background:new 0 0 48 40;" xml:space="preserve">
<style type="text/css">
	.st0{fill-rule:evenodd;clip-rule:evenodd;fill:#FFFFFF;}
</style>
<title>Twitter-black</title>
<desc>Created with Sketch.</desc>
<g id="Icons" sketch:type="MSPage">
	<g id="Black" transform="translate(-300.000000, -204.000000)" sketch:type="MSArtboardGroup">
		<g id="Line-1" transform="translate(200.000000, 200.000000)" sketch:type="MSLayerGroup">
			<path id="Twitter" sketch:type="MSShapeGroup" class="st0" d="M148,8.7c-1.8,0.8-3.7,1.3-5.7,1.6c2-1.2,3.6-3.2,4.3-5.6
				c-1.9,1.2-4,2-6.3,2.4c-1.8-2-4.4-3.2-7.2-3.2c-5.4,0-9.8,4.5-9.8,10.1c0,0.8,0.1,1.6,0.3,2.3c-8.2-0.4-15.4-4.4-20.3-10.6
				c-0.8,1.5-1.3,3.2-1.3,5.1c0,3.5,1.7,6.6,4.4,8.4c-1.6,0-3.1-0.5-4.5-1.3v0.1c0,4.9,3.4,9,7.9,9.9c-0.8,0.2-1.7,0.4-2.6,0.4
				c-0.6,0-1.3-0.1-1.9-0.2c1.3,4,4.9,6.9,9.2,7c-3.4,2.7-7.6,4.3-12.2,4.3c-0.8,0-1.6,0-2.3-0.1c4.4,2.9,9.5,4.5,15.1,4.5
				c18.1,0,28-15.4,28-28.7c0-0.4,0-0.9,0-1.3C145,12.5,146.7,10.8,148,8.7"/>
		</g>
	</g>
</g>
</svg>
